<?xml version="1.0" encoding="utf-8"?>
<!-- Generator: Adobe Illustrator 24.0.2, SVG Export Plug-In . SVG Version: 6.00 Build 0)  -->
<svg version="1.1" id="Layer_1" xmlns="http://www.w3.org/2000/svg" xmlns:xlink="http://www.w3.org/1999/xlink" x="0px" y="0px"
	 viewBox="0 0 248.1 248.2" style="enable-background:new 0 0 248.1 248.2;" xml:space="preserve" preserveAspectRatio="none">
<style type="text/css">
	.st0{fill:#53A6FA;}
	.st1{fill:#FFFFFF;}
</style>
<g>
	<path class="st0" d="M146.4,78.6v68.1H78.3C78.3,109.1,108.8,78.6,146.4,78.6z"/>
	<g>
		<path class="st0" d="M22.7,144.3H0C0,64.7,64.7,0,144.3,0v22.7C77.2,22.7,22.7,77.2,22.7,144.3z"/>
	</g>
	<g>
		<path class="st1" d="M146.7,248.2c-55.9,0-101.4-45.5-101.4-101.4c0-55.9,45.5-101.4,101.4-101.4c55.9,0,101.4,45.5,101.4,101.4
			C248.1,202.6,202.6,248.2,146.7,248.2z M146.7,55.5c-50.3,0-91.3,40.9-91.3,91.2c0,50.3,40.9,91.3,91.3,91.3S238,197,238,146.7
			C238,96.4,197,55.5,146.7,55.5z"/>
	</g>
	<g>
		<g>
			<g>
				<rect x="144.3" y="129.6" class="st1" width="14.4" height="94"/>
			</g>
		</g>
		<circle class="st1" cx="151.6" cy="114.1" r="7.2"/>
	</g>
</g>
</svg>
