<?xml version="1.0" encoding="utf-8"?>
<!-- Generator: Adobe Illustrator 24.0.2, SVG Export Plug-In . SVG Version: 6.00 Build 0)  -->
<svg version="1.1" id="Layer_1" xmlns="http://www.w3.org/2000/svg" xmlns:xlink="http://www.w3.org/1999/xlink" x="0px" y="0px"
	 viewBox="0 0 100 100" style="enable-background:new 0 0 100 100;" xml:space="preserve" preserveAspectRatio="none">
<style type="text/css">
	.st0{fill:#3DC2ED;}
	.st1{fill:#ED3624;}
	.st2{fill:url(#SVGID_1_);}
	.st3{fill:url(#SVGID_2_);}
	.st4{fill:url(#SVGID_3_);}
	.st5{fill:url(#SVGID_4_);}
	.st6{fill:url(#SVGID_5_);}
	.st7{fill:url(#SVGID_6_);}
	.st8{fill:url(#SVGID_7_);}
	.st9{fill:url(#SVGID_8_);}
	.st10{fill:url(#SVGID_9_);}
	.st11{fill:url(#SVGID_10_);}
</style>
<g>
	<path class="st1" d="M91.4,45.3c-1,0-1.9,0-2.8,0C85,26.4,73.8,15.1,54.7,11.4c0-0.3-0.1-0.8-0.1-1.2c0-0.4,0.1-0.9,0.1-1.3
		C69,9.2,88.6,22.2,91.4,45.3z"/>
	<path class="st1" d="M45.3,8.7c0,1,0,1.8,0,2.7c-19,3.5-30.2,14.8-33.9,33.9c-0.8,0-1.8,0-2.7,0C10.5,26,26.7,10.2,45.3,8.7z"/>
	<path class="st1" d="M54.8,91.3c0-0.9,0-1.8,0-2.7C73.6,85,84.9,73.8,88.6,54.8c0.8,0,1.7,0,2.6,0C89.9,72.7,74.3,89.5,54.8,91.3z"
		/>
	<path class="st1" d="M45.3,88.4c0,1.1,0,2,0,2.8C26.9,89.8,10.4,73.9,8.7,54.7c0.9,0,1.8,0,2.8,0c1.2,8.7,4.8,16.3,11,22.5
		C28.8,83.6,36.3,87.3,45.3,88.4z"/>
	<path class="st1" d="M51.6,9.7c0,2.1,0.1,4.2-0.1,6.3c-0.1,0.8-0.9,1.4-1.4,2.1c-0.5-0.7-1.5-1.3-1.6-2c-0.1-4.3-0.1-8.6,0-12.9
		c0-0.7,1-1.3,1.6-2c0.5,0.7,1.4,1.4,1.4,2.1C51.7,5.5,51.6,7.6,51.6,9.7z"/>
	<path class="st1" d="M9.8,51.6c-2,0-4.1,0.1-6.1-0.1c-0.8-0.1-1.6-0.9-2.4-1.5c0.7-0.5,1.5-1.5,2.2-1.5c4.1-0.2,8.3-0.2,12.4,0
		c0.8,0,1.5,1,2.3,1.5c-0.8,0.5-1.5,1.4-2.3,1.5C13.8,51.7,11.8,51.6,9.8,51.6z"/>
	<path class="st1" d="M90.2,51.6c-2.1,0-4.2,0.1-6.3-0.1c-0.7-0.1-1.4-1-2.1-1.5c0.7-0.5,1.4-1.5,2.1-1.5c4.3-0.1,8.6-0.1,12.9,0
		c0.7,0,1.3,0.9,1.9,1.4c-0.7,0.6-1.3,1.5-2,1.6C94.6,51.7,92.4,51.6,90.2,51.6C90.2,51.6,90.2,51.6,90.2,51.6z"/>
	<path class="st1" d="M48.4,90.1c0-2-0.1-4.1,0.1-6.1c0.1-0.8,1-1.4,1.5-2.1c0.5,0.7,1.5,1.4,1.5,2.1c0.1,4.3,0.1,8.6,0,12.9
		c0,0.6-1,1.2-1.5,1.9c-0.5-0.6-1.5-1.2-1.5-1.8C48.3,94.6,48.4,92.3,48.4,90.1C48.4,90.1,48.4,90.1,48.4,90.1z"/>
	<g>
		<g>
			<g>
				<path class="st1" d="M50.2,54c-7.7,0-14-6.3-14-14s6.3-14,14-14s14,6.3,14,14S57.9,54,50.2,54z M50.2,29c-6,0-11,4.9-11,11
					s4.9,11,11,11s11-4.9,11-11S56.2,29,50.2,29z"/>
			</g>
			<g>
				<path class="st1" d="M50.9,74.1c-3.4,0-6.1-2.7-6.1-6.1c0-3.4,2.7-6.1,6.1-6.1c3.4,0,6.1,2.7,6.1,6.1
					C57,71.4,54.3,74.1,50.9,74.1z M50.9,63.4c-2.5,0-4.6,2.1-4.6,4.6c0,2.5,2.1,4.6,4.6,4.6s4.6-2.1,4.6-4.6
					C55.5,65.5,53.5,63.4,50.9,63.4z"/>
			</g>
			<g>
				<path class="st1" d="M74.1,64.6c-3.4,0-6.1-2.7-6.1-6.1c0-3.4,2.7-6.1,6.1-6.1s6.1,2.7,6.1,6.1C80.3,61.9,77.5,64.6,74.1,64.6z
					 M74.1,53.9c-2.5,0-4.6,2.1-4.6,4.6c0,2.5,2.1,4.6,4.6,4.6s4.6-2.1,4.6-4.6C78.7,56,76.7,53.9,74.1,53.9z"/>
			</g>
			<g>
				<path class="st1" d="M26.4,64.6c-3.4,0-6.1-2.7-6.1-6.1c0-3.4,2.7-6.1,6.1-6.1s6.1,2.7,6.1,6.1C32.6,61.9,29.8,64.6,26.4,64.6z
					 M26.4,53.9c-2.5,0-4.6,2.1-4.6,4.6c0,2.5,2.1,4.6,4.6,4.6S31,61,31,58.5C31,56,29,53.9,26.4,53.9z"/>
			</g>
			<g>
				<g>
					
						<rect x="32.1" y="51.8" transform="matrix(0.7809 -0.6247 0.6247 0.7809 -25.2964 32.9612)" class="st1" width="4.6" height="1.5"/>
				</g>
				<g>
					<g>
						<polygon class="st1" points="36.7,52.4 37.7,49.9 34.9,50.3"/>
					</g>
				</g>
			</g>
			<g>
				<g>
					<rect x="50.2" y="57.5" class="st1" width="1.5" height="3.6"/>
				</g>
				<g>
					<g>
						<polygon class="st1" points="49.6,57.9 50.9,55.5 52.3,57.9"/>
					</g>
				</g>
			</g>
			<g>
				<g>
					
						<rect x="65.5" y="49.5" transform="matrix(0.5882 -0.8087 0.8087 0.5882 -14.7605 75.0033)" class="st1" width="1.5" height="5"/>
				</g>
				<g>
					<g>
						<polygon class="st1" points="63.8,51.9 62.7,49.4 65.4,49.7"/>
					</g>
				</g>
			</g>
		</g>
	</g>
</g>
</svg>
