<?xml version="1.0" encoding="utf-8"?>
<!-- Generator: Adobe Illustrator 24.0.2, SVG Export Plug-In . SVG Version: 6.00 Build 0)  -->
<svg version="1.1" id="Layer_1" xmlns="http://www.w3.org/2000/svg" xmlns:xlink="http://www.w3.org/1999/xlink" x="0px" y="0px"
	 viewBox="0 0 776.1 84" style="enable-background:new 0 0 776.1 84;" xml:space="preserve">
<style type="text/css">
	.st0{fill:#6FBE44;}
	.st1{fill:#D8E7A5;}
	.st2{fill:#80C342;}
	.st3{fill:#9DCB3B;}
	.st4{fill:#C5D92D;}
	.st5{fill:#BEC031;}
	.st6{fill:#FFC709;}
	.st7{fill:#F78F1E;}
	.st8{fill:#F15D22;}
	.st9{fill:#EE3624;}
	.st10{fill:#ED2024;}
</style>
<g>
	<rect x="78.9" y="54.6" class="st0" width="47.1" height="19.7"/>
	<rect x="6.6" y="54.6" class="st1" width="47.1" height="19.7"/>
	<rect x="154.6" y="54.6" class="st2" width="47.1" height="19.7"/>
	<rect x="226.9" y="54.6" class="st3" width="47.1" height="19.7"/>
	<rect x="296.1" y="54.6" class="st4" width="47.1" height="19.7"/>
	<rect x="364.7" y="54.6" class="st5" width="47.1" height="19.7"/>
	<rect x="432.9" y="52.5" class="st6" width="47.1" height="19.7"/>
	<rect x="505.2" y="52.5" class="st7" width="47.1" height="19.7"/>
	<rect x="577.5" y="52.5" class="st8" width="47.1" height="19.7"/>
	<rect x="650.2" y="52.5" class="st9" width="47.1" height="19.7"/>
	<rect x="722.4" y="54.4" class="st10" width="47.1" height="19.7"/>
	<path class="st1" d="M17.3,41.8c-1.5,0-2.8-0.6-3.9-1.8c-1.1-1.2-1.6-2.5-1.6-4V18.5c0-1.6,0.5-2.9,1.6-4c1.1-1.1,2.4-1.7,3.9-1.7
		h17.6c1.5,0,2.8,0.6,3.9,1.7c1.1,1.1,1.6,2.5,1.6,4V36c0,1.5-0.5,2.8-1.6,4c-1.1,1.2-2.4,1.8-3.9,1.8H17.3z M17.1,31.4l15.7-13.1
		H18.5c-0.7,0-1.2,0-1.3,0.1c-0.1,0.1-0.1,0.5-0.1,1.3V31.4z M19.5,36.3h14.3c0.8,0,1.2,0,1.3-0.1c0.1-0.1,0.1-0.5,0.1-1.3V23.2
		L19.5,36.3z"/>
	<path class="st0" d="M98.8,41.8V20.5l-2.3,2.8h-7l8.7-10.4h5.8v29H98.8z"/>
	<path class="st2" d="M163.8,41.8V30.7c0-1.5,0.5-2.8,1.6-3.9c1.1-1.1,2.4-1.6,3.9-1.6h16.5c0.8,0,1.2,0,1.3-0.1
		c0.1-0.1,0.1-0.5,0.1-1.3v-4.2c0-0.8,0-1.2-0.1-1.3c-0.1-0.1-0.5-0.1-1.3-0.1h-15.3c-0.7,0-1.2,0-1.3,0.1c-0.1,0.1-0.1,0.5-0.1,1.3
		v1h-5.3v-2.2c0-1.6,0.5-2.9,1.6-3.9c1.1-1.1,2.4-1.6,3.9-1.6H187c1.5,0,2.8,0.5,3.9,1.6c1.1,1.1,1.6,2.4,1.6,3.9v6.5
		c0,1.5-0.5,2.8-1.6,3.9c-1.1,1.1-2.4,1.6-3.9,1.6h-16.5c-0.7,0-1.2,0-1.3,0.1c-0.1,0.1-0.1,0.5-0.1,1.3v3.3c0,0.8,0,1.2,0.1,1.3
		c0.1,0.1,0.5,0.1,1.3,0.1h22v5.3H163.8z"/>
	<path class="st3" d="M244.1,41.8c-1.6,0-2.9-0.5-4-1.6c-1.1-1.1-1.6-2.4-1.6-3.9v-1.7h5.3v0.6c0,0.8,0,1.2,0.1,1.3
		c0.1,0.1,0.5,0.1,1.3,0.1h15.4c0.7,0,1.1,0,1.2-0.1c0.1-0.1,0.2-0.5,0.2-1.3v-3.9c0-0.8-0.1-1.2-0.2-1.3c-0.1-0.1-0.5-0.1-1.2-0.1
		h-17.1v-5.3h15.9c0.8,0,1.2-0.1,1.3-0.1c0.1-0.1,0.1-0.5,0.1-1.3v-3.6c0-0.8,0-1.2-0.1-1.3c-0.1-0.1-0.5-0.1-1.3-0.1h-14.2
		c-0.8,0-1.2,0-1.3,0.1c-0.1,0.1-0.1,0.5-0.1,1.3v1h-5.3v-2.1c0-1.6,0.5-2.9,1.6-3.9c1.1-1.1,2.4-1.6,4-1.6h16.4
		c1.6,0,2.9,0.5,3.9,1.6c1.1,1.1,1.6,2.4,1.6,3.9v5.9c0,0.3,0,0.7-0.1,1c-0.1,0.3-0.1,0.7-0.2,0.9c0.5,0.5,0.8,1.1,1.1,1.8
		c0.3,0.7,0.4,1.4,0.4,2.1v6.2c0,1.5-0.5,2.8-1.6,3.9c-1.1,1.1-2.4,1.6-3.9,1.6H244.1z"/>
	<path class="st4" d="M324.1,41.8v-7.3h-18.2v-5l18.6-16.8h5v16.4h4.1v5.3h-4.1v7.3H324.1z M314,29.2h10v-8.4L314,29.2z"/>
	<path class="st5" d="M381.6,41.8c-1.5,0-2.8-0.5-3.9-1.6c-1.1-1.1-1.6-2.4-1.6-3.9v-1.9h5.3v0.8c0,0.8,0,1.2,0.1,1.3
		c0.1,0.1,0.5,0.1,1.3,0.1H398c0.8,0,1.2,0,1.3-0.1c0.1-0.1,0.1-0.5,0.1-1.3v-4c0-0.7,0-1.2-0.1-1.3c-0.1-0.1-0.5-0.1-1.3-0.1h-22
		V12.8h28.7v5.3h-22c-0.7,0-1.2,0-1.3,0.1c-0.1,0.1-0.1,0.5-0.1,1.3V23c0,0.8,0,1.2,0.1,1.3c0.1,0.1,0.5,0.1,1.3,0.1h16.5
		c1.5,0,2.8,0.5,3.9,1.6c1.1,1.1,1.6,2.4,1.6,3.9v6.3c0,1.5-0.5,2.8-1.6,3.9c-1.1,1.1-2.4,1.6-3.9,1.6H381.6z"/>
	<path class="st5" d="M446.1,38.6c-1.5,0-2.8-0.5-3.9-1.6c-1.1-1.1-1.6-2.4-1.6-3.9V15.2c0-1.6,0.5-2.9,1.6-3.9
		c1.1-1.1,2.4-1.6,3.9-1.6h18.6v5.3h-17.4c-0.7,0-1.2,0-1.3,0.1c-0.1,0.1-0.1,0.5-0.1,1.3v3.4c0,0.8,0,1.2,0.1,1.3
		c0.1,0.1,0.5,0.1,1.3,0.1h16.5c1.5,0,2.8,0.5,3.9,1.6c1.1,1.1,1.6,2.4,1.6,3.9v6.4c0,1.5-0.5,2.8-1.6,3.9c-1.1,1.1-2.4,1.6-3.9,1.6
		H446.1z M447.2,33.3h15.3c0.8,0,1.2,0,1.3-0.1s0.1-0.5,0.1-1.3v-4.1c0-0.8,0-1.2-0.1-1.3c-0.1-0.1-0.5-0.1-1.3-0.1h-16.8v5.5
		c0,0.8,0,1.2,0.1,1.3C446,33.3,446.4,33.3,447.2,33.3z"/>
	<path class="st7" d="M528.5,38.6V16.3c0-0.8,0-1.2-0.1-1.3c-0.1-0.1-0.5-0.1-1.3-0.1h-17.4V9.6h18.6c1.5,0,2.8,0.5,3.9,1.6
		c1.1,1.1,1.6,2.4,1.6,3.9v23.5H528.5z"/>
	<path class="st8" d="M592.3,38.6c-1.5,0-2.8-0.5-3.9-1.6c-1.1-1.1-1.6-2.4-1.6-3.9v-6.3c0-0.5,0.1-1,0.2-1.5c0.2-0.5,0.4-1,0.6-1.4
		c-0.2-0.5-0.4-0.9-0.6-1.4c-0.2-0.5-0.2-1-0.2-1.5v-5.7c0-1.6,0.5-2.9,1.6-3.9c1.1-1.1,2.4-1.6,3.9-1.6h17.6c1.3,0,2.5,0.4,3.6,1.3
		c1.1,0.9,1.7,2,2,3.2v6.7c0,0.5-0.1,1-0.2,1.5c-0.1,0.5-0.4,1-0.6,1.5c0.3,0.5,0.5,0.9,0.6,1.4c0.1,0.5,0.2,1,0.2,1.5v6.3
		c0,1.5-0.5,2.8-1.6,3.9c-1.1,1.1-2.4,1.6-3.9,1.6H592.3z M593.4,21.6h15.3c0.8,0,1.2-0.1,1.3-0.2c0.1-0.1,0.1-0.5,0.1-1.2v-3.9
		c0-0.8,0-1.2-0.1-1.3c-0.1-0.1-0.5-0.1-1.3-0.1h-15.3c-0.7,0-1.2,0.1-1.3,0.1c-0.1,0.1-0.1,0.5-0.1,1.3v3.9c0,0.7,0,1.1,0.1,1.2
		C592.2,21.6,592.6,21.6,593.4,21.6z M593.4,33.3h15.3c0.8,0,1.2,0,1.3-0.1c0.1-0.1,0.1-0.5,0.1-1.3v-4c0-0.7,0-1.2-0.1-1.3
		c-0.1-0.1-0.5-0.1-1.3-0.1h-15.3c-0.7,0-1.2,0.1-1.3,0.1c-0.1,0.1-0.1,0.5-0.1,1.3v4c0,0.8,0,1.2,0.1,1.3
		C592.2,33.3,592.6,33.3,593.4,33.3z"/>
	<path class="st9" d="M662.2,38.6c-1.3,0-2.5-0.5-3.6-1.5c-1-1-1.7-2.3-2-3.7h22.1c0.8,0,1.2,0,1.3-0.1c0.1-0.1,0.1-0.5,0.1-1.3
		v-3.5c0-0.7-0.1-1.1-0.1-1.2c-0.1-0.1-0.5-0.1-1.3-0.1h-16.5c-1.6,0-2.9-0.6-4-1.7c-1.1-1.1-1.6-2.4-1.6-4v-6.2
		c0-1.6,0.5-2.9,1.6-3.9c1.1-1.1,2.4-1.6,4-1.6h17.6c1.5,0,2.8,0.5,3.9,1.6c1.1,1.1,1.6,2.4,1.6,3.9v17.9c0,1.5-0.5,2.8-1.6,3.9
		c-1.1,1.1-2.4,1.6-3.9,1.6H662.2z M663.3,21.7h16.8v-5.4c0-0.8-0.1-1.2-0.1-1.3c-0.1-0.1-0.5-0.1-1.3-0.1h-15.3
		c-0.8,0-1.2,0-1.3,0.1c-0.1,0.1-0.1,0.5-0.1,1.3v4c0,0.7,0,1.2,0.1,1.3C662.1,21.7,662.6,21.7,663.3,21.7z"/>
	<g>
		<g>
			<path class="st10" d="M726.8,38.6V17.2l-2.3,2.8h-7l8.7-10.4h5.8v29H726.8z"/>
			<path class="st10" d="M743.9,38.6c-1.5,0-2.8-0.6-3.9-1.8c-1.1-1.2-1.6-2.5-1.6-4V15.3c0-1.6,0.5-2.9,1.6-4
				c1.1-1.1,2.4-1.7,3.9-1.7h17.6c1.5,0,2.8,0.6,3.9,1.7c1.1,1.1,1.6,2.5,1.6,4v17.5c0,1.5-0.5,2.8-1.6,4c-1.1,1.2-2.4,1.8-3.9,1.8
				H743.9z M743.6,28.1L759.3,15H745c-0.7,0-1.2,0-1.3,0.1c-0.1,0.1-0.1,0.5-0.1,1.3V28.1z M746,33.1h14.3c0.8,0,1.2,0,1.3-0.1
				c0.1-0.1,0.1-0.5,0.1-1.3V19.9L746,33.1z"/>
		</g>
	</g>
</g>
</svg>
